<mxfile host="app.diagrams.net" agent="Mozilla/5.0 (Windows NT 10.0; Win64; x64) AppleWebKit/537.36 (KHTML, like Gecko) Chrome/139.0.0.0 Safari/537.36" version="24.7.14">
  <diagram name="Page-1" id="4QergYm9yRmFlicMtAeq">
    <mxGraphModel dx="1050" dy="530" grid="1" gridSize="10" guides="1" tooltips="1" connect="1" arrows="1" fold="1" page="1" pageScale="1" pageWidth="850" pageHeight="1100" math="0" shadow="0">
      <root>
        <mxCell id="0" />
        <mxCell id="1" parent="0" />
        <mxCell id="sIXYhAxRqwfhUXq1aSSd-2" value="&lt;div style=&quot;text-align: justify; padding-bottom: 60px;&quot;&gt;&lt;b style=&quot;background-color: initial;&quot;&gt;&lt;font style=&quot;font-size: 16px;&quot; color=&quot;#0000cc&quot;&gt;User Interface Layer&lt;/font&gt;&lt;/b&gt;&lt;/div&gt;" style="rounded=1;whiteSpace=wrap;html=1;fillColor=#dae8fc;strokeColor=#6c8ebf;align=center;" vertex="1" parent="1">
          <mxGeometry x="120" y="30" width="600" height="90" as="geometry" />
        </mxCell>
        <mxCell id="sIXYhAxRqwfhUXq1aSSd-4" value="&lt;font style=&quot;font-size: 12px;&quot;&gt;&lt;b style=&quot;&quot;&gt;ui_app.py&lt;/b&gt;&lt;/font&gt;&lt;div style=&quot;&quot;&gt;&lt;font size=&quot;1&quot; style=&quot;&quot;&gt;&lt;b style=&quot;&quot;&gt;Streamlit GUI&lt;/b&gt;&lt;/font&gt;&lt;/div&gt;" style="rounded=1;whiteSpace=wrap;html=1;" vertex="1" parent="1">
          <mxGeometry x="150" y="60" width="110" height="45" as="geometry" />
        </mxCell>
        <mxCell id="sIXYhAxRqwfhUXq1aSSd-6" value="&lt;b style=&quot;&quot;&gt;&lt;font style=&quot;font-size: 12px;&quot;&gt;Image Upload&lt;/font&gt;&lt;/b&gt;" style="rounded=1;whiteSpace=wrap;html=1;" vertex="1" parent="1">
          <mxGeometry x="288" y="60" width="110" height="45" as="geometry" />
        </mxCell>
        <mxCell id="sIXYhAxRqwfhUXq1aSSd-7" value="&lt;b style=&quot;&quot;&gt;&lt;font style=&quot;font-size: 12px;&quot;&gt;Text Input&lt;/font&gt;&lt;/b&gt;" style="rounded=1;whiteSpace=wrap;html=1;" vertex="1" parent="1">
          <mxGeometry x="441" y="60" width="110" height="45" as="geometry" />
        </mxCell>
        <mxCell id="sIXYhAxRqwfhUXq1aSSd-8" value="&lt;b style=&quot;&quot;&gt;&lt;font style=&quot;font-size: 13px;&quot;&gt;Submit Button&lt;/font&gt;&lt;/b&gt;" style="rounded=1;whiteSpace=wrap;html=1;fillColor=#00CC00;strokeColor=#2D7600;fontColor=#ffffff;" vertex="1" parent="1">
          <mxGeometry x="600" y="60" width="110" height="45" as="geometry" />
        </mxCell>
        <mxCell id="sIXYhAxRqwfhUXq1aSSd-14" value="&lt;div style=&quot;text-align: justify; padding-bottom: 60px;&quot;&gt;&lt;b style=&quot;background-color: initial;&quot;&gt;&lt;font style=&quot;font-size: 16px;&quot; color=&quot;#0000cc&quot;&gt;Processing Layer&lt;/font&gt;&lt;/b&gt;&lt;/div&gt;" style="rounded=1;whiteSpace=wrap;html=1;fillColor=#dae8fc;strokeColor=#6c8ebf;align=center;" vertex="1" parent="1">
          <mxGeometry x="121" y="161" width="600" height="90" as="geometry" />
        </mxCell>
        <mxCell id="sIXYhAxRqwfhUXq1aSSd-36" style="edgeStyle=orthogonalEdgeStyle;rounded=0;orthogonalLoop=1;jettySize=auto;html=1;exitX=0.5;exitY=1;exitDx=0;exitDy=0;entryX=0.5;entryY=0;entryDx=0;entryDy=0;" edge="1" parent="1" source="sIXYhAxRqwfhUXq1aSSd-15" target="sIXYhAxRqwfhUXq1aSSd-22">
          <mxGeometry relative="1" as="geometry" />
        </mxCell>
        <mxCell id="sIXYhAxRqwfhUXq1aSSd-15" value="&lt;b style=&quot;&quot;&gt;&lt;font style=&quot;font-size: 12px;&quot;&gt;text_extractor.py&lt;/font&gt;&lt;/b&gt;" style="rounded=1;whiteSpace=wrap;html=1;" vertex="1" parent="1">
          <mxGeometry x="150" y="196" width="110" height="40" as="geometry" />
        </mxCell>
        <mxCell id="sIXYhAxRqwfhUXq1aSSd-16" value="&lt;b style=&quot;font-size: 11px;&quot;&gt;&lt;font style=&quot;font-size: 11px;&quot;&gt;Car_&lt;/font&gt;&lt;/b&gt;&lt;b style=&quot;font-size: 11px; background-color: initial;&quot;&gt;type_&lt;/b&gt;&lt;b style=&quot;font-size: 11px; background-color: initial;&quot;&gt;classifier.py&lt;/b&gt;" style="rounded=1;whiteSpace=wrap;html=1;" vertex="1" parent="1">
          <mxGeometry x="288" y="194" width="126" height="42" as="geometry" />
        </mxCell>
        <mxCell id="sIXYhAxRqwfhUXq1aSSd-17" value="&lt;b style=&quot;&quot;&gt;&lt;font style=&quot;font-size: 12px;&quot;&gt;shema.py&lt;/font&gt;&lt;/b&gt;" style="rounded=1;whiteSpace=wrap;html=1;" vertex="1" parent="1">
          <mxGeometry x="442" y="191" width="110" height="45" as="geometry" />
        </mxCell>
        <mxCell id="sIXYhAxRqwfhUXq1aSSd-20" value="&lt;b style=&quot;&quot;&gt;&lt;font style=&quot;font-size: 12px;&quot;&gt;gmail_sender.py&lt;/font&gt;&lt;/b&gt;" style="rounded=1;whiteSpace=wrap;html=1;" vertex="1" parent="1">
          <mxGeometry x="585" y="191" width="110" height="45" as="geometry" />
        </mxCell>
        <mxCell id="sIXYhAxRqwfhUXq1aSSd-21" value="&lt;div style=&quot;text-align: justify; padding-bottom: 60px;&quot;&gt;&lt;b style=&quot;background-color: initial;&quot;&gt;&lt;font style=&quot;font-size: 16px;&quot; color=&quot;#0000cc&quot;&gt;External Integration&lt;/font&gt;&lt;/b&gt;&lt;/div&gt;" style="rounded=1;whiteSpace=wrap;html=1;fillColor=#dae8fc;strokeColor=#6c8ebf;align=center;" vertex="1" parent="1">
          <mxGeometry x="121" y="306" width="600" height="90" as="geometry" />
        </mxCell>
        <mxCell id="sIXYhAxRqwfhUXq1aSSd-22" value="&lt;span style=&quot;color: rgb(34, 34, 34); font-family: Aptos, sans-serif; text-align: start; background-color: rgb(255, 255, 255);&quot;&gt;&lt;b style=&quot;&quot;&gt;&lt;font style=&quot;font-size: 12px;&quot;&gt;GPT-4o mini&amp;nbsp;&lt;/font&gt;&lt;/b&gt;&lt;/span&gt;" style="rounded=1;whiteSpace=wrap;html=1;" vertex="1" parent="1">
          <mxGeometry x="150" y="341" width="110" height="40" as="geometry" />
        </mxCell>
        <mxCell id="sIXYhAxRqwfhUXq1aSSd-23" value="&lt;b&gt;gmail server&lt;/b&gt;" style="rounded=1;whiteSpace=wrap;html=1;" vertex="1" parent="1">
          <mxGeometry x="350" y="341" width="126" height="38" as="geometry" />
        </mxCell>
        <mxCell id="sIXYhAxRqwfhUXq1aSSd-24" value="&lt;b&gt;Future CV Model&lt;/b&gt;" style="rounded=1;whiteSpace=wrap;html=1;" vertex="1" parent="1">
          <mxGeometry x="580" y="341" width="115" height="43" as="geometry" />
        </mxCell>
        <mxCell id="sIXYhAxRqwfhUXq1aSSd-26" value="&lt;div style=&quot;text-align: justify; padding-bottom: 60px;&quot;&gt;&lt;b style=&quot;background-color: initial;&quot;&gt;&lt;font style=&quot;font-size: 16px;&quot; color=&quot;#0000cc&quot;&gt;Output Layer&lt;/font&gt;&lt;/b&gt;&lt;/div&gt;" style="rounded=1;whiteSpace=wrap;html=1;fillColor=#dae8fc;strokeColor=#6c8ebf;align=center;" vertex="1" parent="1">
          <mxGeometry x="122" y="442" width="600" height="90" as="geometry" />
        </mxCell>
        <mxCell id="sIXYhAxRqwfhUXq1aSSd-27" value="&lt;span style=&quot;color: rgb(34, 34, 34); font-family: Aptos, sans-serif; text-align: start; background-color: rgb(255, 255, 255);&quot;&gt;&lt;b style=&quot;&quot;&gt;&lt;font style=&quot;font-size: 12px;&quot;&gt;Structured JSON&lt;/font&gt;&lt;/b&gt;&lt;/span&gt;" style="rounded=1;whiteSpace=wrap;html=1;" vertex="1" parent="1">
          <mxGeometry x="210" y="477" width="110" height="40" as="geometry" />
        </mxCell>
        <mxCell id="sIXYhAxRqwfhUXq1aSSd-29" value="&lt;b&gt;Email to designated Address&lt;/b&gt;" style="rounded=1;whiteSpace=wrap;html=1;" vertex="1" parent="1">
          <mxGeometry x="510" y="477" width="120" height="43" as="geometry" />
        </mxCell>
        <mxCell id="sIXYhAxRqwfhUXq1aSSd-32" style="edgeStyle=orthogonalEdgeStyle;rounded=0;orthogonalLoop=1;jettySize=auto;html=1;exitX=0.5;exitY=1;exitDx=0;exitDy=0;entryX=0.437;entryY=0.143;entryDx=0;entryDy=0;entryPerimeter=0;" edge="1" parent="1" source="sIXYhAxRqwfhUXq1aSSd-6" target="sIXYhAxRqwfhUXq1aSSd-16">
          <mxGeometry relative="1" as="geometry" />
        </mxCell>
        <mxCell id="sIXYhAxRqwfhUXq1aSSd-33" style="edgeStyle=orthogonalEdgeStyle;rounded=0;orthogonalLoop=1;jettySize=auto;html=1;exitX=0.5;exitY=1;exitDx=0;exitDy=0;entryX=0.5;entryY=0;entryDx=0;entryDy=0;" edge="1" parent="1" source="sIXYhAxRqwfhUXq1aSSd-4" target="sIXYhAxRqwfhUXq1aSSd-15">
          <mxGeometry relative="1" as="geometry" />
        </mxCell>
        <mxCell id="sIXYhAxRqwfhUXq1aSSd-34" value="" style="endArrow=classic;html=1;rounded=0;entryX=0.5;entryY=0;entryDx=0;entryDy=0;" edge="1" parent="1" target="sIXYhAxRqwfhUXq1aSSd-15">
          <mxGeometry width="50" height="50" relative="1" as="geometry">
            <mxPoint x="480" y="105" as="sourcePoint" />
            <mxPoint x="400" y="145" as="targetPoint" />
          </mxGeometry>
        </mxCell>
        <mxCell id="sIXYhAxRqwfhUXq1aSSd-37" value="" style="endArrow=classic;html=1;rounded=0;entryX=0.5;entryY=0;entryDx=0;entryDy=0;" edge="1" parent="1" target="sIXYhAxRqwfhUXq1aSSd-24">
          <mxGeometry width="50" height="50" relative="1" as="geometry">
            <mxPoint x="350" y="236" as="sourcePoint" />
            <mxPoint x="400" y="264.5" as="targetPoint" />
          </mxGeometry>
        </mxCell>
        <mxCell id="sIXYhAxRqwfhUXq1aSSd-38" value="" style="endArrow=classic;html=1;rounded=0;entryX=0.5;entryY=0;entryDx=0;entryDy=0;" edge="1" parent="1" target="sIXYhAxRqwfhUXq1aSSd-23">
          <mxGeometry width="50" height="50" relative="1" as="geometry">
            <mxPoint x="641" y="235" as="sourcePoint" />
            <mxPoint x="366" y="326" as="targetPoint" />
          </mxGeometry>
        </mxCell>
        <mxCell id="sIXYhAxRqwfhUXq1aSSd-39" value="" style="endArrow=classic;html=1;rounded=0;entryX=0.5;entryY=0;entryDx=0;entryDy=0;" edge="1" parent="1" target="sIXYhAxRqwfhUXq1aSSd-29">
          <mxGeometry width="50" height="50" relative="1" as="geometry">
            <mxPoint x="407" y="378" as="sourcePoint" />
            <mxPoint x="695" y="483" as="targetPoint" />
          </mxGeometry>
        </mxCell>
        <mxCell id="sIXYhAxRqwfhUXq1aSSd-40" style="edgeStyle=orthogonalEdgeStyle;rounded=0;orthogonalLoop=1;jettySize=auto;html=1;exitX=0.5;exitY=1;exitDx=0;exitDy=0;entryX=0.5;entryY=0;entryDx=0;entryDy=0;" edge="1" parent="1" source="sIXYhAxRqwfhUXq1aSSd-22" target="sIXYhAxRqwfhUXq1aSSd-27">
          <mxGeometry relative="1" as="geometry" />
        </mxCell>
      </root>
    </mxGraphModel>
  </diagram>
</mxfile>
